<?xml version="1.0" encoding="UTF-8"?>
<svg width="643px" height="124px" viewBox="0 0 643 124" version="1.1" xmlns="http://www.w3.org/2000/svg"
     xmlns:xlink="http://www.w3.org/1999/xlink">
    <title>inkredo</title>
    <defs>
        <path d="M190.34,204.56 L238.18,204.56 L238.18,293 L212.9,293 L212.9,226 L190.34,226 L190.34,204.56 Z M320.58,205.96 C330.180048,205.96 337.833305,208.946637 343.54,214.92 C349.246695,220.893363 352.1,228.893283 352.1,238.92 L352.1,293 L327.46,293 L327.46,246.12 C327.46,240.679973 325.940015,236.386682 322.9,233.24 C319.859985,230.093318 315.726693,228.52 310.5,228.52 C304.41997,228.626667 299.620018,230.733313 296.1,234.84 C292.579982,238.946687 290.82,244.199968 290.82,250.6 L290.82,293 L266.18,293 L266.18,206.92 L290.82,206.92 L290.82,221.96 C296.793363,211.506614 306.713264,206.173334 320.58,205.96 Z M430.66,293 L409.86,257.96 L398.82,269.64 L398.82,293 L374.18,293 L374.18,174.28 L398.82,174.28 L398.82,239.56 L430.34,207.08 L458.34,207.08 L426.82,240.2 L459.78,293 L430.66,293 Z M497.06,222.44 C500.046682,217.10664 503.939976,213.053347 508.74,210.28 C513.540024,207.506653 519.139968,206.066667 525.54,205.96 L525.54,229.16 C524.686662,229.053333 523.406675,229 521.7,229 C514.126629,229 508.126689,231.053313 503.7,235.16 C499.273311,239.266687 497.06,244.733299 497.06,251.56 L497.06,293 L472.42,293 L472.42,206.92 L497.06,206.92 L497.06,222.44 Z M575.94,206.12 C589.806736,206.12 600.339964,210.11996 607.54,218.12 C614.740036,226.12004 618.34,237.266595 618.34,251.56 C618.34,254.120013 618.286667,256.093326 618.18,257.48 L556.42,257.48 C557.806674,262.920027 560.473314,267.159985 564.42,270.2 C568.366686,273.240015 573.113306,274.76 578.66,274.76 C582.713354,274.76 586.606648,273.986674 590.34,272.44 C594.073352,270.893326 597.433318,268.626682 600.42,265.64 L613.38,278.76 C609.006645,283.666691 603.700031,287.426654 597.46,290.04 C591.219969,292.653346 584.260038,293.96 576.58,293.96 C567.513288,293.96 559.593367,292.146685 552.82,288.52 C546.046633,284.893315 540.820018,279.773366 537.14,273.16 C533.459982,266.546634 531.62,258.920043 531.62,250.28 C531.62,241.53329 533.486648,233.8267 537.22,227.16 C540.953352,220.4933 546.179966,215.320018 552.9,211.64 C559.620034,207.959982 567.299957,206.12 575.94,206.12 Z M595.14,242.92 C594.926666,237.266638 593.11335,232.73335 589.7,229.32 C586.28665,225.90665 581.753362,224.2 576.1,224.2 C570.76664,224.2 566.313351,225.879983 562.74,229.24 C559.166649,232.600017 556.900005,237.159971 555.94,242.92 L595.14,242.92 Z M719.46,174.28 L719.46,293 L694.98,293 L694.98,280.36 C691.886651,284.840022 688.04669,288.226655 683.46,290.52 C678.87331,292.813345 673.646696,293.96 667.78,293.96 C659.673293,293.96 652.553364,292.120018 646.42,288.44 C640.286636,284.759982 635.540017,279.560034 632.18,272.84 C628.819983,266.119966 627.14,258.38671 627.14,249.64 C627.14,240.999957 628.793317,233.373366 632.1,226.76 C635.406683,220.146634 640.09997,215.026685 646.18,211.4 C652.26003,207.773315 659.246627,205.96 667.14,205.96 C679.300061,205.96 688.579968,210.493288 694.98,219.56 L694.98,174.28 L719.46,174.28 Z M673.54,274.12 C679.833365,274.12 684.97998,271.906689 688.98,267.48 C692.98002,263.053311 694.98,257.320035 694.98,250.28 C694.98,243.239965 692.98002,237.506689 688.98,233.08 C684.97998,228.653311 679.833365,226.44 673.54,226.44 C667.139968,226.44 661.94002,228.653311 657.94,233.08 C653.93998,237.506689 651.886667,243.239965 651.78,250.28 C651.886667,257.320035 653.93998,263.053311 657.94,267.48 C661.94002,271.906689 667.139968,274.12 673.54,274.12 Z M782.98,206.12 C792.046712,206.12 800.073298,207.933315 807.06,211.56 C814.046702,215.186685 819.459981,220.306634 823.3,226.92 C827.140019,233.533366 829.06,241.21329 829.06,249.96 C829.06,258.600043 827.140019,266.2533 823.3,272.92 C819.459981,279.5867 814.046702,284.759982 807.06,288.44 C800.073298,292.120018 792.046712,293.96 782.98,293.96 C773.806621,293.96 765.726702,292.120018 758.74,288.44 C751.753298,284.759982 746.340019,279.5867 742.5,272.92 C738.659981,266.2533 736.74,258.600043 736.74,249.96 C736.74,241.21329 738.659981,233.533366 742.5,226.92 C746.340019,220.306634 751.753298,215.186685 758.74,211.56 C765.726702,207.933315 773.806621,206.12 782.98,206.12 Z M782.98,226.6 C776.579968,226.6 771.38002,228.786645 767.38,233.16 C763.37998,237.533355 761.38,243.239965 761.38,250.28 C761.38,257.320035 763.37998,263.026645 767.38,267.4 C771.38002,271.773355 776.579968,273.96 782.98,273.96 C789.273365,273.96 794.41998,271.773355 798.42,267.4 C802.42002,263.026645 804.42,257.320035 804.42,250.28 C804.42,243.239965 802.42002,237.533355 798.42,233.16 C794.41998,228.786645 789.273365,226.6 782.98,226.6 Z"
              id="path-1"></path>
        <filter x="-0.6%" y="-1.7%" width="101.3%" height="106.7%" filterUnits="objectBoundingBox" id="filter-2">
            <feOffset dx="0" dy="2" in="SourceAlpha" result="shadowOffsetOuter1"></feOffset>
            <feGaussianBlur stdDeviation="1" in="shadowOffsetOuter1" result="shadowBlurOuter1"></feGaussianBlur>
            <feColorMatrix values="0 0 0 0 0   0 0 0 0 0   0 0 0 0 0  0 0 0 0.162477355 0" type="matrix"
                           in="shadowBlurOuter1"></feColorMatrix>
        </filter>
    </defs>
    <g id="logo-new" stroke="none" stroke-width="1" fill="none" fill-rule="evenodd">
        <g id="Artboard" transform="translate(-188.000000, -174.000000)">
            <g id="1nkredo">
                <use fill="#1890ff" fill-opacity="1" filter="url(#filter-2)" xlink:href="#path-1"></use>
                <use fill="#1890ff" fill-rule="evenodd" xlink:href="#path-1"></use>
            </g>
        </g>
    </g>
</svg>
